<svg viewBox="0 0 1179.1666259765625 400" xmlns="http://www.w3.org/2000/svg"><g><g><g><g><g><line x1="61.91500186920166" y1="376.5999994277954" x2="56.91500186920166" y2="376.5999994277954" style="visibility: inherit;" fill="rgb(0, 0, 0)" stroke="rgb(204, 204, 204)" stroke-width="1px"></line><line x1="61.91500186920166" y1="347.6307687025804" x2="56.91500186920166" y2="347.6307687025804" style="visibility: inherit;" fill="rgb(0, 0, 0)" stroke="rgb(204, 204, 204)" stroke-width="1px"></line><line x1="61.91500186920166" y1="318.6615379773653" x2="56.91500186920166" y2="318.6615379773653" style="visibility: inherit;" fill="rgb(0, 0, 0)" stroke="rgb(204, 204, 204)" stroke-width="1px"></line><line x1="61.91500186920166" y1="289.69230725215033" x2="56.91500186920166" y2="289.69230725215033" style="visibility: inherit;" fill="rgb(0, 0, 0)" stroke="rgb(204, 204, 204)" stroke-width="1px"></line><line x1="61.91500186920166" y1="260.7230765269353" x2="56.91500186920166" y2="260.7230765269353" style="visibility: inherit;" fill="rgb(0, 0, 0)" stroke="rgb(204, 204, 204)" stroke-width="1px"></line><line x1="61.91500186920166" y1="231.75384580172027" x2="56.91500186920166" y2="231.75384580172027" style="visibility: inherit;" fill="rgb(0, 0, 0)" stroke="rgb(204, 204, 204)" stroke-width="1px"></line><line x1="61.91500186920166" y1="202.78461507650516" x2="56.91500186920166" y2="202.78461507650516" style="visibility: inherit;" fill="rgb(0, 0, 0)" stroke="rgb(204, 204, 204)" stroke-width="1px"></line><line x1="61.91500186920166" y1="173.8153843512901" x2="56.91500186920166" y2="173.8153843512901" style="visibility: inherit;" fill="rgb(0, 0, 0)" stroke="rgb(204, 204, 204)" stroke-width="1px"></line><line x1="61.91500186920166" y1="144.84615362607505" x2="56.91500186920166" y2="144.84615362607505" style="visibility: inherit;" fill="rgb(0, 0, 0)" stroke="rgb(204, 204, 204)" stroke-width="1px"></line><line x1="61.91500186920166" y1="115.87692290086022" x2="56.91500186920166" y2="115.87692290086022" style="visibility: inherit;" fill="rgb(0, 0, 0)" stroke="rgb(204, 204, 204)" stroke-width="1px"></line><line x1="61.91500186920166" y1="86.90769217564517" x2="56.91500186920166" y2="86.90769217564517" style="visibility: inherit;" fill="rgb(0, 0, 0)" stroke="rgb(204, 204, 204)" stroke-width="1px"></line><line x1="61.91500186920166" y1="57.93846145043011" x2="56.91500186920166" y2="57.93846145043011" style="visibility: inherit;" fill="rgb(0, 0, 0)" stroke="rgb(204, 204, 204)" stroke-width="1px"></line><line x1="61.91500186920166" y1="28.969230725215056" x2="56.91500186920166" y2="28.969230725215056" style="visibility: inherit;" fill="rgb(0, 0, 0)" stroke="rgb(204, 204, 204)" stroke-width="1px"></line><line x1="61.91500186920166" y1="0" x2="56.91500186920166" y2="0" style="visibility: inherit;" fill="rgb(0, 0, 0)" stroke="rgb(204, 204, 204)" stroke-width="1px"></line></g><g transform="translate(51.91500186920166, 0)"><text style="text-anchor: end; visibility: hidden; font-family: Roboto, sans-serif; font-size: 12px; font-weight: 200;" x="0" y="376.5999994277954" dx="0em" dy="0.3em" fill="rgb(255, 255, 255)" stroke="none" stroke-width="1px">0.054</text><text style="text-anchor: end; visibility: inherit; font-family: Roboto, sans-serif; font-size: 12px; font-weight: 200;" x="0" y="347.6307687025804" dx="0em" dy="0.3em" fill="rgb(255, 255, 255)" stroke="none" stroke-width="1px">0.056</text><text style="text-anchor: end; visibility: inherit; font-family: Roboto, sans-serif; font-size: 12px; font-weight: 200;" x="0" y="318.6615379773653" dx="0em" dy="0.3em" fill="rgb(255, 255, 255)" stroke="none" stroke-width="1px">0.058</text><text style="text-anchor: end; visibility: inherit; font-family: Roboto, sans-serif; font-size: 12px; font-weight: 200;" x="0" y="289.69230725215033" dx="0em" dy="0.3em" fill="rgb(255, 255, 255)" stroke="none" stroke-width="1px">0.06</text><text style="text-anchor: end; visibility: inherit; font-family: Roboto, sans-serif; font-size: 12px; font-weight: 200;" x="0" y="260.7230765269353" dx="0em" dy="0.3em" fill="rgb(255, 255, 255)" stroke="none" stroke-width="1px">0.062</text><text style="text-anchor: end; visibility: inherit; font-family: Roboto, sans-serif; font-size: 12px; font-weight: 200;" x="0" y="231.75384580172027" dx="0em" dy="0.3em" fill="rgb(255, 255, 255)" stroke="none" stroke-width="1px">0.064</text><text style="text-anchor: end; visibility: inherit; font-family: Roboto, sans-serif; font-size: 12px; font-weight: 200;" x="0" y="202.78461507650516" dx="0em" dy="0.3em" fill="rgb(255, 255, 255)" stroke="none" stroke-width="1px">0.066</text><text style="text-anchor: end; visibility: inherit; font-family: Roboto, sans-serif; font-size: 12px; font-weight: 200;" x="0" y="173.8153843512901" dx="0em" dy="0.3em" fill="rgb(255, 255, 255)" stroke="none" stroke-width="1px">0.068</text><text style="text-anchor: end; visibility: inherit; font-family: Roboto, sans-serif; font-size: 12px; font-weight: 200;" x="0" y="144.84615362607505" dx="0em" dy="0.3em" fill="rgb(255, 255, 255)" stroke="none" stroke-width="1px">0.07</text><text style="text-anchor: end; visibility: inherit; font-family: Roboto, sans-serif; font-size: 12px; font-weight: 200;" x="0" y="115.87692290086022" dx="0em" dy="0.3em" fill="rgb(255, 255, 255)" stroke="none" stroke-width="1px">0.072</text><text style="text-anchor: end; visibility: inherit; font-family: Roboto, sans-serif; font-size: 12px; font-weight: 200;" x="0" y="86.90769217564517" dx="0em" dy="0.3em" fill="rgb(255, 255, 255)" stroke="none" stroke-width="1px">0.074</text><text style="text-anchor: end; visibility: inherit; font-family: Roboto, sans-serif; font-size: 12px; font-weight: 200;" x="0" y="57.93846145043011" dx="0em" dy="0.3em" fill="rgb(255, 255, 255)" stroke="none" stroke-width="1px">0.076</text><text style="text-anchor: end; visibility: inherit; font-family: Roboto, sans-serif; font-size: 12px; font-weight: 200;" x="0" y="28.969230725215056" dx="0em" dy="0.3em" fill="rgb(255, 255, 255)" stroke="none" stroke-width="1px">0.078</text><text style="text-anchor: end; visibility: hidden; font-family: Roboto, sans-serif; font-size: 12px; font-weight: 200;" x="0" y="0" dx="0em" dy="0.3em" fill="rgb(255, 255, 255)" stroke="none" stroke-width="1px">0.08</text></g><line x1="61.91500186920166" y1="0" x2="61.91500186920166" y2="376.5999994277954" fill="rgb(0, 0, 0)" stroke="rgb(204, 204, 204)" stroke-width="1px"></line></g></g><g transform="translate(61, 0)" clip-path="url(#clip_0)"><clipPath id="clip_0"><rect width="1117" height="376"></rect></clipPath><g><g><g><line x1="0" y1="0" x2="0" y2="376.5999994277954" fill="rgb(0, 0, 0)" stroke="rgb(189, 189, 189)" stroke-width="1px" opacity="0.25"></line><line x1="111.72549981307985" y1="0" x2="111.72549981307985" y2="376.5999994277954" fill="rgb(0, 0, 0)" stroke="rgb(189, 189, 189)" stroke-width="1px" opacity="0.25"></line><line x1="223.4509996261597" y1="0" x2="223.4509996261597" y2="376.5999994277954" fill="rgb(0, 0, 0)" stroke="rgb(189, 189, 189)" stroke-width="1px" opacity="0.25"></line><line x1="335.17649943923954" y1="0" x2="335.17649943923954" y2="376.5999994277954" fill="rgb(0, 0, 0)" stroke="rgb(189, 189, 189)" stroke-width="1px" opacity="0.25"></line><line x1="446.9019992523194" y1="0" x2="446.9019992523194" y2="376.5999994277954" fill="rgb(0, 0, 0)" stroke="rgb(189, 189, 189)" stroke-width="1px" opacity="0.25"></line><line x1="558.6274990653992" y1="0" x2="558.6274990653992" y2="376.5999994277954" fill="rgb(0, 0, 0)" stroke="rgb(189, 189, 189)" stroke-width="1px" opacity="0.25"></line><line x1="670.3529988784791" y1="0" x2="670.3529988784791" y2="376.5999994277954" fill="rgb(0, 0, 0)" stroke="rgb(189, 189, 189)" stroke-width="1px" opacity="0.25"></line><line x1="782.0784986915588" y1="0" x2="782.0784986915588" y2="376.5999994277954" fill="rgb(0, 0, 0)" stroke="rgb(189, 189, 189)" stroke-width="1px" opacity="0.25"></line><line x1="893.8039985046388" y1="0" x2="893.8039985046388" y2="376.5999994277954" fill="rgb(0, 0, 0)" stroke="rgb(189, 189, 189)" stroke-width="1px" opacity="0.25"></line><line x1="1005.5294983177185" y1="0" x2="1005.5294983177185" y2="376.5999994277954" fill="rgb(0, 0, 0)" stroke="rgb(189, 189, 189)" stroke-width="1px" opacity="0.25"></line><line x1="1117.2549981307984" y1="0" x2="1117.2549981307984" y2="376.5999994277954" fill="rgb(0, 0, 0)" stroke="rgb(189, 189, 189)" stroke-width="1px" opacity="0.25"></line></g><g><line x1="0" y1="376.5999994277954" x2="1117.2549981307984" y2="376.5999994277954" fill="rgb(0, 0, 0)" stroke="rgb(189, 189, 189)" stroke-width="1px" opacity="0.25"></line><line x1="0" y1="347.6307687025804" x2="1117.2549981307984" y2="347.6307687025804" fill="rgb(0, 0, 0)" stroke="rgb(189, 189, 189)" stroke-width="1px" opacity="0.25"></line><line x1="0" y1="318.6615379773653" x2="1117.2549981307984" y2="318.6615379773653" fill="rgb(0, 0, 0)" stroke="rgb(189, 189, 189)" stroke-width="1px" opacity="0.25"></line><line x1="0" y1="289.69230725215033" x2="1117.2549981307984" y2="289.69230725215033" fill="rgb(0, 0, 0)" stroke="rgb(189, 189, 189)" stroke-width="1px" opacity="0.25"></line><line x1="0" y1="260.7230765269353" x2="1117.2549981307984" y2="260.7230765269353" fill="rgb(0, 0, 0)" stroke="rgb(189, 189, 189)" stroke-width="1px" opacity="0.25"></line><line x1="0" y1="231.75384580172027" x2="1117.2549981307984" y2="231.75384580172027" fill="rgb(0, 0, 0)" stroke="rgb(189, 189, 189)" stroke-width="1px" opacity="0.25"></line><line x1="0" y1="202.78461507650516" x2="1117.2549981307984" y2="202.78461507650516" fill="rgb(0, 0, 0)" stroke="rgb(189, 189, 189)" stroke-width="1px" opacity="0.25"></line><line x1="0" y1="173.8153843512901" x2="1117.2549981307984" y2="173.8153843512901" fill="rgb(0, 0, 0)" stroke="rgb(189, 189, 189)" stroke-width="1px" opacity="0.25"></line><line x1="0" y1="144.84615362607505" x2="1117.2549981307984" y2="144.84615362607505" fill="rgb(0, 0, 0)" stroke="rgb(189, 189, 189)" stroke-width="1px" opacity="0.25"></line><line x1="0" y1="115.87692290086022" x2="1117.2549981307984" y2="115.87692290086022" fill="rgb(0, 0, 0)" stroke="rgb(189, 189, 189)" stroke-width="1px" opacity="0.25"></line><line x1="0" y1="86.90769217564517" x2="1117.2549981307984" y2="86.90769217564517" fill="rgb(0, 0, 0)" stroke="rgb(189, 189, 189)" stroke-width="1px" opacity="0.25"></line><line x1="0" y1="57.93846145043011" x2="1117.2549981307984" y2="57.93846145043011" fill="rgb(0, 0, 0)" stroke="rgb(189, 189, 189)" stroke-width="1px" opacity="0.25"></line><line x1="0" y1="28.969230725215056" x2="1117.2549981307984" y2="28.969230725215056" fill="rgb(0, 0, 0)" stroke="rgb(189, 189, 189)" stroke-width="1px" opacity="0.25"></line><line x1="0" y1="0" x2="1117.2549981307984" y2="0" fill="rgb(0, 0, 0)" stroke="rgb(189, 189, 189)" stroke-width="1px" opacity="0.25"></line></g></g></g><g><g><line x1="0" y1="1158.769229008601" x2="1117.2549981307984" y2="1158.769229008601" fill="rgb(0, 0, 0)" stroke="rgb(153, 153, 153)" stroke-width="1.5px"></line></g></g><g><g><line x1="111.72549981307985" y1="0" x2="111.72549981307985" y2="376.5999994277954" fill="rgb(0, 0, 0)" stroke="rgb(153, 153, 153)" stroke-width="1.5px"></line></g></g><g><g><g><g><g><path style="fill: none;" stroke="rgb(255, 112, 67)" stroke-width="2px" d="M120.16077504896738,-17.919004436163135L120.37305349861222,10.43295652887269L120.46802017345334,-4.413550153533907L122.67459879476166,-26.844162734333192L125.70794611468679,5.116245091669204L126.12133046399518,-5.9473742226551405L126.76933836291104,3.942912478757506L126.90340896268674,-1.1053031441559575L128.9479856092661,-12.787825683625512L129.83061705778942,10.138078630665717L129.96468765756512,46.47823109205377L131.64615642975198,42.19199360953719L131.83608977943422,-2.0450996705146647L132.13774862892953,-18.580143154911546L134.19908410048086,14.910516730652054L134.67950374967708,39.92584820112437L134.74653904956494,27.91201099970387L135.08171554900417,-3.3774573592209123L138.71838056791995,-13.102412216086908L140.15963951550867,7.862761748923654L140.7015081896021,-12.261071272520145L141.12047881390114,37.28908611310212L141.30482588859275,-0.522856009874519L142.19304361210672,-13.450131894552666L143.382920185116,14.385078197635295L144.30465555857393,49.036673600330616L144.49458890825616,85.36503973080102L145.13701053218136,44.28848938479431L145.22639093203182,27.324125634262266L145.53922233150845,21.94450685759854L146.50006162990093,10.698753618959369L146.80172047939627,21.779027281415757L147.10896560388224,-6.938346118459575L147.3044852285551,1.5664926347331807L148.4217402266859,54.688702748394164L149.3211305001812,64.96520866485962L149.4328559999943,47.93729250804799L149.99148349905968,65.14167889406048L150.37693647341482,65.31940054721527L150.77914827274188,63.496604194696324L152.24275232029325,49.22647304640992L153.26504064358292,24.55884047824207L153.42145634332124,50.060354001543736L154.42698584163898,48.021897977989184L154.9074054908352,51.18504005389764L156.33749188844263,75.11082978833875L157.09722528717157,16.459430605969107L158.04130576059208,89.52274117000518L159.47697843319017,71.27029997469003L159.5104960831341,76.27601114069903L159.86801768253594,83.36680129304753L160.09705495715278,89.06214992876185L160.29257458182562,60.12755302779481L160.46016283154526,87.99638433819612L160.61657853128358,93.04402893558026L160.75064913105928,83.25422258921708L160.76182168104057,74.99586815198134L162.8510885275452,86.1716049498058L163.40971602661057,39.355361542803934L163.6275807512461,60.74250293376215L163.82868665090962,-1.3774483783161897L164.00744745061056,6.464184455442374L165.9794025223114,24.36427701887728L166.20843979692825,47.98386782624728L166.67768689614317,33.07128750326459L166.99610457061044,-12.070748092635782L167.12458889539548,48.881268287333945L167.3033496950964,64.15221042633789L167.47093794481603,62.3561491540076L167.94018504403095,7.67656415079859L168.0910144687786,25.041943689716113L168.2641889934889,16.292147273423648L168.65522824283468,46.446750219677334L170.07414209046078,40.92789111254713L170.48194016477854,55.70988928775963L171.18022453861028,46.73031095861233L171.1913970885916,30.956047970915098L171.53774613801215,32.87266319615846L173.3030090350588,34.392717808297895L173.83370515917093,56.40240334432772L177.74968392761934,55.4434809983407L178.01782512717077,73.18678096571193L178.9116291256754,37.15503456608616L179.18535660021743,9.193737416782252L180.5260625979744,15.34644874347856L180.73834104761926,42.31440859930653L180.98413714720803,49.75486498242461L181.41986659647904,50.89641447917477L183.81637856746963,46.19650617427628L184.03424329210512,66.71521814006883L186.04530228874054,92.08566033318574L186.5145493879555,99.21550188847495L187.26311023670314,73.0116347024044L187.41952593644143,108.80558384684771L187.82732401075916,95.22152771372446L187.9334632355816,83.53536046581732L187.96139461053485,78.98088550231127L188.82726723408624,115.50374355357354L189.089822158647,72.8470691078451L189.77134770750678,79.32961301020667L190.1903183318058,70.69710077849757L190.98356938047868,80.1212637249721L191.41371255475903,82.73876079411296L191.94999495386185,58.083125445491646L193.53649705120753,74.63658069781623L194.09512455027294,93.26633009550557L194.68726969928227,105.91065278547443L194.7598912741608,119.77740362968814L195.88273254728225,98.80605703835164L195.9106639222355,38.3613876449531L196.5530855461607,61.55418144723097L197.59213269442236,86.8148132092797L198.92725241718867,107.34917039593097L202.45219193629134,113.40512843799797L203.2957194598801,113.69899312983897L205.76485300574913,64.04505484311782L205.94361380545007,74.41109349447628L206.0385804802912,62.92162968908221L206.17265108006688,77.93432938584559L206.39610207969307,73.99651378730967L207.36252765307617,101.49389680103893L212.95438891872084,118.68674405490118L212.99907911864608,87.47277616718092L213.0437693185713,26.304556617941795L214.54089101606655,70.41434855166152L214.96544791535626,90.42368131386013L216.51843236275806,89.62498661032681L216.551950012702,119.56185001738444L216.71953826242162,108.85714848911549L218.47362860948698,121.3504937975934L219.03225610855236,89.38730868853322L219.6467463575243,90.89279954080234L219.97075030698224,69.13156122842156L220.66344840582332,89.09058275049803L220.91483078040275,105.72010956629968L221.3114563047392,98.65049320422773L222.5627819026457,94.29013042042824L223.44541335116904,118.02664802912122L226.67986657075767,73.36483257163184L226.90331757038385,74.85413664559809L227.05973327012217,80.86429099133596L228.1490568932997,68.05932037941051L228.85851381711274,109.91794821371977L229.2383805164772,138.08517975386252L229.3277609163277,99.3730184596158L229.75790409060804,87.49988456944176L230.52881003931827,87.98298671575364L230.77460613890705,60.8553461597563L232.81359651049578,116.8457148593262L234.97548493187887,134.5614288710442L235.5285261559536,123.76829519887929L238.54511465090678,129.02528880858245L240.60645012245809,135.46709100985314L240.80196974713098,82.65167114878555L242.47785224432718,98.22270248140829L242.48343851931784,82.68555179348449L243.00296209344864,87.87001236328243L243.50014056761685,113.60907498819955L247.90771153524287,101.71295200456248L248.41606255939237,143.1737152040979L248.438407659355,138.746455995459L249.80704503206522,188.03966574411592L250.03049603169137,154.65185567800108L250.42153528103717,141.49879128433426L251.03602553000908,107.80945797094786L251.33209810451373,143.30805827961234L251.6784471539343,121.35060631632152L252.0080373783829,166.90263204695128L252.77335705210248,160.8490439916402L253.86268067528002,154.6941514042485L255.0078670483641,146.25700247120113L255.37656119774724,160.32720581161604L256.5720240457472,158.4195549393943L258.4378398926256,136.76032503586916L258.66129089225177,147.64122990637313L259.0746752415602,146.26911100254944L260.5773832140461,148.7118012062208L260.83993813860684,159.9585541278117L261.5270499624573,191.25604904296L262.6331324106068,168.77735505397453L262.7169265354666,142.46119995546533L263.13589715976565,115.51255752816422L264.27549725785906,124.53603048745377L266.9792543533356,150.46435668480737L267.2082916279524,151.4435292328693L267.5490544023823,147.6060943636739L268.1747172013355,118.62477937826904L268.39258192597106,90.87933028510092L268.71099960043836,53.60520747149923L272.5767018939709,46.417364120750314L273.5710588423073,80.1284166165924L273.63809414219514,110.16269527838976L275.45921978914834,156.2185371062808L276.4647492874661,156.72287506921117L276.8837199117651,116.62142426977944L277.1909650362511,151.56643375856177L277.2803454361016,154.416986656912L277.50938271071834,127.00755972547009L278.10711413471836,122.80479790128518L278.3696690592791,112.03224312229169L278.4646357341202,128.90933816609987L278.60987888387723,144.95722990262394L279.6209946571856,178.85553782447192L279.6880299570734,194.2172479422143L279.7606515319519,194.41451717955718L280.9896320298958,171.96509953496187L283.24090085112937,165.1285927746894L284.4475362491106,109.79216080347884L284.67098724873676,127.24721802770847L284.715677448662,112.95126695374469L284.9335421732975,154.7637677369395L286.2630756210732,120.65103401842303L287.0004639198395,116.7669680032034L287.1903972695217,117.77581348744724L288.5869660171852,147.87716459683153L289.9388445649235,200.0772518635294L290.0282249647739,173.33550501876525L290.2237445894469,192.97370675949347L290.3522289142319,177.83465436915517L290.56450736387677,156.82459375981074L293.3185409342692,143.09274666107865L295.01676853142794,147.98467137890043L295.0893901063065,187.38540892182982L297.63114522705405,216.64860319036836L298.3517747008484,232.86113828153003L299.98855327311,220.0443923895816L300.55835332215673,168.33672993241623L300.8991160965866,199.72144612359358L304.250881090979,167.91668396341203L306.97139701142754,144.0534754115839L307.06077741127797,149.93958548550646L308.02720298466113,183.70209156638523L308.4573461589415,169.7323538063559L309.3511501574461,224.91976706885447L309.9097776565115,194.0566897019993L310.3231620058199,186.35894091454753L311.17786207938997,142.54073806952L312.3453935524367,134.88226015869577L312.54091317710953,180.72922963554106L315.6301232469412,190.03747056241312L316.70827432013743,159.81066744421884L317.79201166832434,118.65500548364251L317.80877049329627,143.11585896310848L317.87580579318416,141.6647911564814L318.39532936731496,153.9152595875491L318.78078234167003,157.11529086860307L318.85899019153925,192.41257369441212L319.0656823661934,164.42530743149325L319.43437651557656,134.81653441175277L322.18282381097833,137.02647882670837L322.6017944352774,131.1725739674482L323.65201413352037,173.21558135899463L326.160251604324,159.03709808197752L326.1658378793146,134.37099974020038L326.2831496541184,139.71274954830253L326.72446537838005,140.0337691954015L328.500900825408,115.26509404705504L328.69083417509023,139.64122342133533L328.91987144970705,120.91997464163636L329.0204243995388,91.03654367276214L329.7298813233519,127.56862456186025L332.87495414309006,133.97481655510018L333.56765224193117,139.78886245741757L335.7909896882114,183.02690158051504L336.49486033703386,173.58092634419796L336.56748191191235,196.12220864826054L337.03114273613664,230.66616316491724L337.5003898353516,227.58992558524923L338.1930879341927,225.85802967053007L338.623231108473,202.7695921821441L339.6064155068281,188.15785157581678L340.43877048043555,185.83985878396592L341.17057250421124,196.57091513290456L342.8520412763981,170.24174173744132L343.4050825004729,185.01467625660402L343.7570178248841,177.91072348300804L343.78494919983734,191.00595968675924L343.9246060746037,142.58699857720748L345.0753787226784,184.47540248290565L346.1702886208466,165.64552489392813L346.4160847204354,175.1450152282071L347.0808514443232,194.20786325857387L348.924322191239,181.98556368325688L349.33770654054734,143.88069568705447L351.1253145375567,172.00207938403338L351.66159693665946,182.23993861115696L352.7062303599118,169.60316554855217L353.2257539340426,174.74302193010868L353.58886180843507,173.19093844098182L355.3485384304911,132.4385965887732L356.2758600789396,174.22212444402984L358.94609952447223,199.91555891757935L359.1025152242106,171.48927167047268L359.47120937359375,211.54751361444048L359.5494172234629,168.89000000850572L360.1080447225283,145.7677959674719L360.22535649733203,176.78259409992341L360.43763494697686,198.41338665186208L361.49344092021045,187.40821527143513L361.566062495089,186.60619865357106L361.5995801450329,196.35696972048112L361.77275466974316,183.91901611145784L362.9738037927338,167.63005141905754L365.2585902639113,160.54972201580313L365.49321381351876,180.54499015027068L370.22478873060265,195.6366594209226L371.4425966785652,189.7537712682368L372.1017771274624,172.2720019687613L373.66593412484553,181.91437932082226L374.3753910486586,201.04660362848165L374.63235969822864,189.44303149837526L374.6547047981913,184.57867212266052L374.7440851980418,157.57650075920472L374.90608717277075,159.29833337459L375.1686420973315,183.7971855012856L375.2747813221539,190.2432099829842L375.9786519709763,193.943218088368L376.224448070565,172.2228940052406L377.3305305187145,216.9653827729959L377.7718462429762,190.62656435599456L378.62096004155563,171.9838735972014L379.8611130894808,215.05112154977112L380.92250533770505,227.1478740995818L381.246509287163,212.37387395724264L382.0174152358732,211.81568449239256L382.71569960970504,181.70446933904705L383.41398398353675,150.2463675254244L383.75474675796664,166.25877594920428L383.8720585327703,207.3022541347277L384.57592918159276,234.1910030871995L386.37470972858335,220.35062904056224L386.9500960526207,197.1170126443682L387.2070647021908,200.30424099674022L388.1511451756113,232.5603250794077L389.31309037366736,226.77436818698098L389.65385314809726,236.0017184660211L390.2795159470505,206.11481932149678L391.095112095686,202.28115692165787L392.4972671183401,203.55117181170507L393.8603182160597,201.14836857589208L394.6088790648073,186.45210614656108L394.93288301426526,156.0900885885113L401.07778550398467,184.77278507120906L401.8207600777417,201.15425099949948L401.8542777276856,185.6805901677888L402.04979735235844,183.95621463079638L402.284420901966,217.0659296730183L403.49105629994716,206.12652697541108L403.68098964962945,178.91203040810606L404.17816812379766,175.89674363758928L404.24520342368544,184.10110407696345L404.4407230483584,164.4923816127301L405.2228015470499,159.32172610945298L405.93225847086296,216.5084463998566L407.6137272430499,208.84177273408397L408.2561488669751,200.46626041628124L409.2169881653675,189.57685533006315L411.2783236369189,198.46941014297607L413.61338658301224,223.45765427627884L415.94286325411497,221.6672261907816L416.6914241028626,188.29972783512045L417.66343595123635,169.04502240200645L419.41194002331105,190.7241582653153L419.79739299766624,242.3237403438918L421.0207872206194,235.81450212857968L421.75817551938576,195.0584549581416L422.24418144357264,220.55780783251706L422.4843912681708,245.08891112274284L422.98156974233893,249.32076177748309L423.8306835409184,218.97984631514007L424.45634633987163,217.04884001371298L424.61834831460055,185.8855495837835L426.1825053119837,203.62660141227263L427.243897560208,229.34332950534272L429.76330758099294,202.7198807786769L429.9141370057406,210.7211131303883L430.51186842974056,228.9045598585838L432.4447195765068,231.21169697313078L432.6625843011424,231.20914216445072L434.56750407295533,211.0348044131361L435.1596492219647,234.19970437192902L435.41661787153475,257.72882779240126L435.606551221217,253.63507737781268L436.6791160194225,248.64070001382984L437.947200442301,236.06544170102217L437.9918906422263,211.884933383558L438.2265141918337,232.9839386712602L439.1650083902636,228.88272683391844L439.3884593898897,235.0520327720091L440.00853591385237,216.1680881063754L440.5615771379271,220.29704078305383L441.63414193613266,249.625235858216L444.0250676321325,227.95606570011086L444.40493433149703,226.73669524709953L446.90758552731,234.74192183242954L448.46615624970246,227.6982805167209L449.3096837732912,228.05403270057315L452.2536506933659,221.35710858532047L454.6445763893658,190.3519641944706L454.7116116892537,174.91104809544592L456.63329028603863,183.27134934080726L457.53826683452456,210.91675894623708L457.9013747089171,202.32501803008418L458.0186864837208,197.4263744386909L458.3650355331414,233.58452354604927L459.9962278304123,225.14624120322785L460.2308513800198,222.3709687957573L462.65529472596364,214.00282303376534L463.4820634245804,219.69216258123745L466.8338284189728,218.60543799222788L467.1354872684681,180.95944964169396L467.4985951428606,210.95061919029044L468.7164030908232,247.69018112899L469.7554502390849,246.1091815196604L472.03465043527166,230.31694996537402L474.24122905658004,223.83897720168534L474.4311624062623,195.75255907194335L476.64891357755187,166.3118967523676L477.162850876692,233.49814799524245L477.3192665764304,234.21457020130828L477.95051565037426,204.4616998843632L478.6543862991967,254.91226920752996L478.8666647488415,269.958884555109L479.5314314727293,226.3643941550797L479.62639814757046,259.9767171174592L480.0453687718695,244.30182716942687L480.1738530966545,230.73477980979118L480.3470276213648,162.1450157410159L481.59276694428064,155.50705774732202L481.7044924440937,209.8462252610882L481.7827002939629,170.9131188662337L482.05084149351427,153.18291478462416L483.26306316648623,229.129597816641L484.0619004901497,230.30890795759467L484.12893579003753,241.7197201797832L484.218316189888,260.81147368173754L484.56466523930857,266.2113437170271L487.3298713596823,258.7697546701142L487.5756674592711,235.96572350072032L488.86051070712153,246.80362190351562L488.9275460070093,239.03606085781948L490.66487752910274,236.81114851785966L491.02239912850456,248.0329351921333L491.5586815276074,203.07329491654178L492.64241887579425,215.3633634466695L494.0389876234578,216.45945765860483L494.13954057328954,212.62267391296717L494.8713425970652,219.36913164749024L495.05010339676613,208.60397421466817L496.20646231983153,221.05274692330738L497.54716831758844,252.80549579972296L498.48566251601835,223.35068434497566L499.05546256506506,218.63735113592466L499.56381358921453,225.75534475426136L499.7481606639061,181.59019310172664L500.1336136382613,209.58552938968535L500.75369016222385,199.4021336725577L500.94920978689674,221.00607140853546L501.77039221052286,261.47121578205747L503.85407278203684,279.05420876373694L504.658496380691,227.65921459065856L504.7758081554947,208.16574840849688L506.04947885336384,221.57434191717397L506.0774102283171,235.2570902512944L506.3232063279059,202.45687592815892L507.6527397756815,220.7883842398037L508.07729667497125,236.73379106569215L508.11640059990583,221.42907989453474L508.8035124237563,247.22888252189387L509.23924187302725,266.9483105334453L509.501796797588,291.6430298350585L509.7811105471207,268.0886355123897L510.33973804618614,292.8018215987173L512.2278989930271,264.1410765923635L513.0043912167281,238.26167127048944L513.5071559658869,244.57078277183385L515.5517326124663,248.21564077427914L517.0097503850269,235.91544965347214L517.2052700096998,234.3944150163255L520.2162722296623,233.8514656519106L520.6631742289146,250.54383556073745L520.8754526785596,261.8996607930054L522.0541567015875,225.38441045711937L522.6798195005407,219.98976730821116L523.3557587744099,235.49689937263418L524.2048725729893,214.71684871822083L524.6350157472697,235.3503619866957L524.6741196722043,222.5738531444883L524.791431447008,233.2253119082517L525.3109550211387,236.3080713097062L525.9477903700733,216.37841434146455L526.1824139196808,196.4709344087298L528.4280964659238,184.46109176729465L529.3330730144096,204.2386478721188L530.7240554870825,230.55327091470394L531.3106143611011,242.51525965158427L531.5117202607647,243.57659620575026L531.7239987104095,187.93682951903554L531.8413104852133,172.48754972737535L532.7574595836805,211.17080016657422L533.1652576579984,215.3980738937636L533.4725027824843,234.72470544320117L533.8523694818488,212.03321806270628L534.1149244064095,209.21347231940564L534.5227224807272,217.3189284206148L536.3103304777364,231.5393918407688L537.5057933257365,253.21608829007704L539.0029150232317,239.8603968470965L539.2487111228205,259.3872441535586L539.5615425222971,237.66526729272655L540.7123151703719,207.46420245539605L541.935709393325,213.0869847886319L542.0474348931382,221.62503015433379L542.6786839670821,244.6625119771533L544.9858155382221,232.64090177868727L545.2707155627455,210.73192348809454L546.3712117359044,232.23700607342786L547.1756353345586,263.3785172908728L547.9521275582595,226.35314780456198L548.2593726827454,184.05812911919023L548.4939962323529,235.14976784305958L548.7342060569509,196.70454905203064L549.4045590558294,220.03708738789743L549.4213178808014,229.5737412566056L549.8179434051378,233.79419200253318L549.8849787050257,243.45043635104756L550.3430532542593,253.94682901840753L550.750851328577,277.8363684289372L551.0189925281285,243.5956425975927L553.3764005741845,228.94930813371977L553.8679927733621,231.59853182309794L553.8735790483527,234.89648321358086L554.0355810230816,233.79328549721907L554.3260673225956,257.1649346146692L556.1360204195676,270.3664294174725L557.873351941661,265.47065555763874L561.2698071359785,299.4931895015692L561.3815326357917,332.93876819145737L565.9734506781092,325.96037988386786L566.2695232526138,274.2253098521581L566.654976226969,237.66792344881873L567.6493331753055,254.6264038963125L568.2414783243147,253.77414976967648L572.4926335922024,282.42925346456445L572.9116042165015,250.21316238879348L573.9785827397163,242.92839230444733L576.2242652859593,280.46085081073295L576.3304045107817,253.75446447347886L576.3695084357163,244.6587961312084L577.1962771343331,240.44406448011338L579.8274126549311,243.69888052230434L580.4363166289123,278.51158805744643L580.6765264535104,259.6706864490987L580.911150003118,204.45839044655258L581.1904637526507,209.8607230373032L582.542342300389,259.00553126072396L583.542285523716,243.9443626125854L585.5645170703327,218.17269566277363L585.6203798202392,241.18943010837427L585.7656229699963,243.65348047178117L587.2683309424822,257.5418191650633L588.9051095147439,263.260171934402L589.9385703880148,225.17195089587926L590.9385136113418,214.48239691405252L593.3853020572483,258.2971486413262L594.390831555566,213.67518334533696L594.4969707803886,222.86637036862922L595.8209179531735,240.6201533278128L596.1449219026315,274.12652214993045L596.9884494262202,246.74433737382623L597.1392788509678,274.74416519101305L597.3906612255473,270.96608085542005L599.524618271977,278.05413299361635L600.9435321196032,241.5595331434827L601.5747811935471,268.5352653160649L602.1669263425564,210.35170488130117L602.8093479664817,238.48601142221005L603.8595676647245,247.99585509398156L604.5690245885377,257.8396834377646L606.4292541604253,237.88522551372205L607.9654797828553,285.5332136994897L611.3954526271168,299.0308578198663L613.1104390492476,263.9684823230336L614.736045071528,261.01836495105897L615.2779137456214,238.1781629621526L615.4510882703316,235.05523618171534L615.5460549451727,219.36514549333037L617.7135296415464,239.83190507172785L617.752633566481,250.61818167538667L618.9927866144062,246.36651460243112L619.0821670142567,250.30234614730014L619.5178964635277,244.8294552467906L619.7972102130603,244.91426768586837L620.0374200376585,220.56828706355492L620.5234259618454,274.9986817593791L622.4227594586679,260.45068484452116L624.1936086307051,247.1183967130313L624.824857704649,259.3513736926472L625.6236950283126,270.98163225791126L626.7074323764994,262.62646124888107L627.0761265258826,262.247763444434L627.0817128008733,228.31199409815534L627.1096441758265,227.80788460495336L627.148748100761,200.42724043516006L629.8580914712282,238.73295161318242L630.2603032705554,255.7256290301614L631.9920485176581,261.9649301174844L633.2322015655833,222.57773263981034L635.2432605622188,221.89994164071405L635.4890566618076,268.92442218638695L635.5337468617327,304.30393472526254L636.8632803095084,286.3405639183232L636.9079705094337,251.50083029563538L637.7570843080131,247.20309405721068L639.466484455153,261.1229979918118L641.7121670013961,265.2170256121317L642.8908710244241,251.62717191091167L643.745571097994,289.00206199209543L646.264981118779,258.9326376781251L646.767745867938,252.10091266962027L648.8346676144799,248.67339887613414L652.9405797326106,237.4169460372693L653.6723817563862,265.55252873508584L658.1022978239748,256.3350361005794L658.6274076730963,277.8213804523895L660.9959882691336,290.20547041746124L662.1914511171335,318.48679163880695L662.7835962661429,288.3455948033541L665.0516239123484,273.11854544900484L665.1465905871895,277.0831500160072L665.3365239368718,283.90715606669204L665.4594219866661,268.2695155894704L665.6214239613951,315.0941961409664L666.6716436596381,335.5939053318532L667.1129593838997,288.6943638789239L671.693704876236,254.5043577697374L672.3584716001238,275.06517959832775L672.760683399451,249.00478909115296L674.0287678223293,222.45343520809985L674.7996737710396,205.21559348243105L675.57057971975,254.9680662917546L676.4979013681984,277.46372336185334L676.9168719924976,263.8339209370564L677.6989504911891,298.83043585921087L678.7379976394507,262.49780715152L679.525662413133,224.60233647560736L681.8160351593011,255.28882205449378L682.4249391332824,264.86844324427403L682.4528705082356,266.38236098940837L682.9053587824785,281.05824533635155L684.3689628300299,298.7683592621549L686.0280865022542,281.00812321940555L686.8269238259177,247.84732494906146L686.8492689258803,269.49106778953677L687.6090023246093,306.5013687162772L688.0726631488335,270.02127906113014L688.4301847482353,307.6334202776764L689.374265221656,286.0241220771434L689.9496515456932,300.2559950275992L691.1339418437119,333.85515116943753L692.2344380168707,294.3545261802948L693.5751440146278,320.92257230719366L693.9550107139922,282.7870982766471L694.3181185883847,292.37651774420493L694.5583284129829,294.81924199780786L694.5974323379174,293.63827824657625L694.636536262852,302.130885515101L695.005230412235,268.75000547281513L695.2789578867772,261.08712678340356L697.591675732908,257.57206441110975L698.1000267570574,268.86423475088685L698.7145170060294,253.05066029778433L699.0887974304032,271.351425599559L699.9490837789639,320.85922076710807L701.2115819268516,335.46671060337354L701.6137937261788,329.53569254986957L701.7087604010198,291.6319906488512L702.3176643750012,292.22608402612485L702.5131839996741,245.58138892330217L702.742221274291,271.20495523695666L704.2840331717114,276.14749142613215L705.0437665704403,273.8149384908877L705.6135666194871,295.953841191538L705.775568594216,274.5817731175056L705.8984666440105,288.042972223091L706.5576470929076,310.27674462953553L708.9038825889822,290.20667019878755L709.2725767383655,313.33450985489907L709.8256179624401,283.78520143548536L709.8870669873373,274.6843132836541L709.9876199371691,277.8597429398563L710.1049317119729,245.29301086838663L711.088116110328,273.66674692184864L711.8422632340663,292.8697978331265L711.8813671590009,269.52999842736847L712.9483456822157,294.9164314007349L713.6298712310755,303.44182994499016L713.8253908557484,273.57808018405046L714.1493948052064,284.1862487295642L714.3058105049447,227.1638122951489L714.7750576041595,248.68632938140362L715.4230655030755,278.5030170996999L716.5514930511875,287.05170732773877L721.4115522930566,273.8154489581972L721.7690738924584,290.9339622818923L723.4170250147014,272.9536752485316L723.6628211142902,267.7031443711039L725.7353291358227,274.63085268508223L726.3609919347759,276.5142856533209L726.4838899845704,304.850192984152L726.9866547337292,279.1131374259645L728.4726038812432,313.0745763568136L729.0088862803459,274.7950785399523L731.6400218009439,294.74615053057244L731.8746453505514,264.55811306394827L733.0086591736542,254.21221471043268L733.2823866481963,300.98822975019397L733.5505278477476,300.99524693666814L733.7181160974674,310.01704379949257L735.1984789699906,287.52621188577746L737.1816065916728,260.21344963134567L738.9524557637101,251.6491242289558L739.080940088495,272.0604993228539L739.2205969632614,305.92923418898874L739.7512930873736,294.9376651466066L739.89094996214,297.98987784719253L740.3601970613549,295.98141402277923L740.4439911862146,272.1925468417766L741.036136335224,306.7995834095427L741.0417226102147,300.9418229864861L742.6896737324577,324.6215564960663L745.5163288777285,334.1378995204916L749.4155488212049,301.56494400805076L749.7004488457283,325.0331395483871L750.5886665692424,260.69054326922014L750.6445293191489,256.9393787886876L751.7897156922329,249.6555002067044L752.7840726405694,274.6621392548887L752.8566942154479,286.0822446468297L753.1583530649432,269.03457399554094L753.2477334647937,289.1991185144827L755.7559709355974,297.72063439314604L756.147010184943,296.9123316504251L756.1693552849057,297.0388696551704L756.5324631592982,301.2080709215131L756.5603945342515,310.47271250125976L757.6888220823636,282.65106114981506L757.8452377821019,276.6973006162405L758.6217300058028,274.9001880181529L760.6160301774663,299.22528440036723L760.6216164524569,260.32579337257164L761.1523125765691,294.6261819914323L762.0014263751485,277.4917711483104L762.5432950492418,272.13662531918897L763.0516460733913,285.5975312877612L763.073991173354,270.27306917486L766.1967188931295,272.7447432827469L766.7441738422136,288.4314080748628L769.5875878124566,355.48697247468823L773.1348724315219,303.8661942376687L774.118056829877,317.73271897540883L774.5482000041573,358.79785558865746L776.6318805756713,304.1484746224348L776.9726433501012,335.98971534391643L777.6262375240077,312.48063205242624L777.9390689234842,315.81277653914134L779.3300513961572,318.42503584756196L780.0339220449795,282.35490432306017L781.3746280427365,307.42551937854256L782.0058771166804,308.2100175598853L783.6314831389607,336.7067194844114L784.0057635633345,335.7209665620661L784.9386714867737,351.8335883032801L787.2625618828858,291.7305539367656L787.4915991575027,287.5074709782249L787.631256032269,262.83831178417125L788.3854031560072,268.6978017940143L790.8545367018763,283.93764968700765L791.3684740010165,238.13579767629892L793.1337368980631,276.44371590081823L795.8374939935397,276.94714214125804L796.5525371923434,281.80741520440586L796.6251587672218,274.03252990760024L796.8597823168294,293.328383239617L798.3066275394087,282.8911582812996L800.4126532108853,278.40405450646807L801.3734925092778,284.1052910189511L804.2783555044178,325.7954316352186L805.244781077801,316.4421498553228L805.4291281524926,313.569682731286L807.7753636485672,303.6481563052131L809.3227618209784,294.6912235259744L810.4791207440437,284.53471216901886L810.6243638938008,298.2693406216799L810.6411227187727,319.640886426858L811.8198267418007,343.26872360077385L812.6019052404922,392.9713124110209L813.6856425886791,339.2699016525277L814.4397897124175,323.1577499318019L815.7469780602305,311.543053736334L816.3726408591838,304.4786751041691L819.5959215287911,331.64909575365635L819.7411646785481,359.6113094148503L820.3947588524546,333.018188169287L821.1600785261742,324.5333977186823L823.6236257970526,320.4642900990391L824.5956376454265,343.3261926012466L825.3386122191835,307.87247983193254L826.3553142674824,318.29432262282836L829.282522362585,341.55176448288097L829.4445243373141,316.66810388046775L830.4779852105851,285.0081401140992L830.7461264101364,312.6723942707034L831.1986146843794,268.0586816236259L831.9192441581738,243.3749278351266L832.4331814573139,305.5918879443912L833.9470619797812,286.8325508486171L834.0587874795942,281.10552787761475L834.0811325795569,287.0260362733714L834.1984443543607,324.868444003945L835.2654228775755,336.0154187892678L836.0083974513325,330.7610144203488L837.3155857991455,291.1195332570235L839.6283036452763,305.6574013528086L841.343290067407,299.8317322716738L841.5443959670707,258.78657019825704L841.6840528418369,270.2302602896478L843.538696138734,278.16504774650343L844.5218805370891,286.8302796410424L844.6950550617994,269.4833074598684L846.6334924835564,318.3421488491482L847.5105376570891,336.19604053717364L848.689241680117,321.8055115718916L849.1361436793694,297.5252483429296L849.7115300034068,304.42008681196717L850.0131888529021,312.3009529150572L852.7616361483039,304.60733238680945L853.1861930475935,310.8926892087033L853.6107499468832,300.5704628028207L854.4207598205281,311.513711870864L854.5380715953318,273.3232024050438L854.7447637699861,298.2818988841753L855.7000167933878,333.23666238506473L858.2026679892009,346.56602234722146L859.5266151619859,314.14746756591273L864.7330234532753,317.1888987684294L865.5933098018361,350.4698411847016L865.7497255015743,325.8990240371669L865.900554926322,312.1705682756568L866.0849020010137,287.42649470179896L866.4424236004155,335.7804196636859L866.7440824499108,352.93951687078055L866.8167040247893,322.78967670121153L868.0121668727893,306.1486518081672L868.6825198716676,306.91305143651954L869.12942187092,293.57984807339705L874.4866595869572,310.0686296907305L875.7268126348823,315.4326198459898L876.9334480328637,296.0213054967779L877.4082814070694,307.533933546109L878.9947835044151,324.37309428300335L879.5422384534991,329.05020384381066L880.123211052527,311.70287802473996L880.4360424520038,315.43184274987584L882.1230974991813,316.4398537587582L882.4806190985831,302.137567221355L883.0504191476299,313.14442979488985L883.3520779971252,327.3086022382792L883.4638034969382,307.33756524424996L883.7989799963774,338.32030417871624L885.0503055942839,285.3578735985157L887.4579901152558,280.7879037196886L888.6311078632932,264.0786832239488L888.681384338209,255.21851506501596L889.9382962111061,290.8084642355323L892.8543317562276,298.732833960713L894.4687652285265,331.05697496749764L894.6586985782087,327.12199553788633L895.1335319524144,311.97804044143635L895.7145045514425,295.49680356583076L895.770367301349,304.8904026196379L895.9379555510685,285.80991063790907L896.4574791251994,309.8267672208539L897.40155959862,317.90411974915145L898.6026087216105,346.2893631656291L899.144477395704,345.8835214787989L901.0940873674423,359.88293486881037L901.1443638423581,363.1859540293391L901.1555363923394,322.9943155154442L901.7700266413113,333.12836894855184L902.0716854908067,319.6592899583217L902.2616188404888,353.8987995496494L902.9878345892739,319.8149186303084L903.116318914059,290.2844917280453L903.5129444383954,311.9861584809656L907.5294761566756,315.47428106341124L907.7864448062456,343.2223615003814L908.1160350306943,320.16459191399696L908.4735566300961,305.0341920808494L908.5350056549934,288.58217266667884L909.3729469035914,325.61335504661594L911.0767607757408,326.34771127754317L911.1493823506195,348.12705033796647L912.4062942235165,329.07134022873566L913.1939589971988,347.73488378014997L915.529021943292,328.6781927314029L917.484218190021,325.54572244467874L917.5289083899463,295.92121635160294L919.0483751874041,341.4973944942906L919.2885850120023,318.2538443360015L920.3723223601891,342.65423262025325L920.3779086351798,333.25248540649056L920.4002537351424,329.75288187574625L920.5566694348807,308.75829787286045L926.0591503006749,308.84592836613893L926.1932209004506,336.78586396143834L926.6512954496842,335.4249930339763L927.3216484485627,292.3088645125448L928.2936602969364,298.5134117033684L928.8411152460205,288.2097650951931L929.8354721943571,320.36963415161557L930.0142329940579,345.3896195642747L931.1538330921513,342.0425863177347L931.2655585919643,323.9726551033869L931.9806017907681,309.5258078235839L932.2208116153663,339.5179530508922L934.3156647368614,306.85223502654407L937.6506709062819,291.23728435157955L942.7732850727116,257.5462658251524L942.9743909723752,296.9934125127837L944.1028185204873,326.95278484983425L944.7117224944685,335.560599852235L944.912828394132,354.2710461817411L949.242191511889,334.8841754850509L949.2477777868795,353.63612318402875L950.2924112101318,368.0775254107886L950.404136709945,354.56407343239977L954.7670174776458,332.3087509413802L954.9960547522626,351.78770163453015L955.1748155519634,324.66857484884815L955.666407751141,296.02572916945724L955.683166576113,335.1974115218737L956.7724901992906,318.5234906088358L957.0909078737578,310.8881000993199L957.9902981472532,303.8450371159366L958.0070569722251,310.4148054953826L958.3869236715896,352.3552729120017L959.8337688941689,340.69196262891796L960.3030159933838,345.71130341511497L960.4650179681129,344.9310271043441L961.0404042921501,330.21818812354724L961.4426160914772,311.5066308122587L961.8224827908417,326.27856510891985L961.9118631906921,305.1263700074363L962.4034553898698,290.47974467251237L962.5710436395894,323.79500560530573L965.079281110393,314.0279900201152L965.1072124853463,285.0249974546268L965.4479752597762,288.8075037437633L966.07922433372,287.16594337052015L966.7942675325238,285.98606860994124L967.3864126815331,296.65830848336395L967.8835911557013,304.9420847467996L968.4924951296827,310.0776984539359L969.7214756276264,330.31675980138476L970.8834208256826,283.6524502050379L971.4476345997385,268.1199197433112L972.4308189980936,302.9154759294961L973.1793798468412,326.6723499960795L973.3581406465422,334.05567764196854L974.9446427438879,301.2468025804027L976.0004487171216,294.8090989542393L976.525558566243,313.29088189069904L976.7825272158132,327.93427596812865L977.0227370404112,312.5955398942946L977.0953586152898,310.50548233592934L977.3243958899066,299.97489912045603L978.3243391132337,300.9231697394185L979.2963509616073,314.93677682516966L980.5756079344673,309.6777478086817L982.6816336059438,319.310890208759L983.0391552053457,267.89763259045594L983.1061905052335,264.358853505218L983.8100611540559,301.8521680876498L984.6312435776821,264.07991060557134" fill="none"></path></g></g></g></g><g opacity="0.2"><g><g><g><path style="fill: none;" stroke="rgb(255, 112, 67)" stroke-width="2px" d="M117.45701795349083,-43.53991952800512L118.04916310250016,13.848381406577035L118.33964940201417,-128.49014090079595L119.87028874945335,58.171493524417436L120.0713946491169,-36.66257853164367L120.16077504896738,-13.949773272079842L120.37305349861222,41.630564103696045L120.46802017345334,-20.75351365081421L122.56287329494859,0.8549585879614093L122.67459879476166,-54.2958619869998L125.70794611468679,40.298414508405415L126.12133046399518,-18.12644644422322L126.76933836291104,14.830442433565425L126.90340896268674,-6.6625566954434445L128.9479856092661,-25.6483863981892L129.83061705778942,35.37580663092759L129.96468765756512,86.48290998816844L131.64615642975198,37.47353215209244L131.83608977943422,-50.74306736397946L132.13774862892953,-36.78258423076573L134.19908410048086,51.778384157517195L134.67950374967708,67.46373337802274L134.74653904956494,14.68669459972493L135.08171554900417,-37.82216597504915L138.71838056791995,-18.97652278593613L140.15963951550867,30.942070891060418L140.7015081896021,-34.414198373811075L141.12047881390114,91.8358980168144L141.30482588859275,-42.14776708315342L141.67910631296655,-54.89017078651901L142.19304361210672,0.8074743185245791L143.382920185116,45.027200231545784L144.30465555857393,87.18254753080203L144.49458890825616,125.35677051295919L145.13701053218136,-0.9302341052739663L145.22639093203182,8.649069740835644L145.53922233150845,16.02240551522328L146.50006162990093,-1.681025156346312L146.80172047939627,33.97663946445454L147.10896560388224,-38.55158910487492L147.3044852285551,10.928962186567118L148.4217402266859,113.16777438612064L149.3211305001812,76.27800089222895L149.4328559999943,29.192275562314315L149.99148349905968,84.08096138622552L150.37693647341482,65.51504371161292L150.77914827274188,61.48999644528479L152.24275232029325,33.517337076447674L153.26504064358292,-2.596284449740689L153.42145634332124,78.13344872047196L154.42698584163898,45.77788336382395L154.9074054908352,54.66715443998147L156.33749188844263,101.44930420188315L157.09722528717157,-48.10639538470695L158.04130576059208,169.9537805304146L159.47697843319017,51.17727647396492L159.5104960831341,81.78649990328046L159.86801768253594,91.1726291078176L160.09705495715278,95.33181943530471L160.29257458182562,28.275181649418986L160.46016283154526,118.67551796561293L160.61657853128358,98.60067971085178L160.75064913105928,72.47720888019556L160.76182168104057,65.9047384773772L162.8510885275452,98.47430680287337L163.40971602661057,-12.181847585912378L163.6275807512461,84.28633085153967L163.82868665090962,-69.76159646136014L164.00744745061056,15.096570179999835L165.9794025223114,44.069420933246654L166.20843979692825,73.98526610999069L166.67768689614317,16.654917567880336L166.99610457061044,-61.76492173182029L167.12458889539548,115.9797064871327L167.3033496950964,80.96307950372865L167.47093794481603,60.37897245925782L167.94018504403095,-52.51692858382655L168.0910144687786,44.15845393844065L168.2641889934889,6.66001844540452L168.65522824283468,79.64215346303217L170.07414209046078,34.85250839797521L170.48194016477854,71.98250912769942L171.18022453861028,36.845228932408226L171.1913970885916,13.591103001264878L171.53774613801215,34.98255054495551L173.3030090350588,36.066055238468L173.83370515917093,80.63155296802442L177.74968392761934,54.387860600657774L178.01782512717077,92.71932126592723L178.9116291256754,-2.5101652519893674L179.18535660021743,-21.587186335812618L180.5260625979744,22.119601548496913L180.73834104761926,72.00182659185668L180.98413714720803,57.945619488210106L181.41986659647904,52.153078210891195L183.81637856746963,41.022657536110835L184.03424329210512,89.30304391753772L186.04530228874054,120.01446644493653L186.5145493879555,107.06431906278489L187.26311023670314,44.16536074126782L187.41952593644143,148.20900685459648L187.82732401075916,80.26765079406785L187.9334632355816,70.67075618450778L187.96139461053485,73.96713575256938L188.82726723408624,155.70957888731598L189.089822158647,25.88888127263138L189.77134770750678,86.46585881868886L190.1903183318058,61.19408311165818L190.98356938047868,90.49576243075484L191.41371255475903,85.62020714753707L191.94999495386185,30.941207540707055L193.53649705120753,92.85929194197163L194.09512455027294,113.77470968455832L194.68726969928227,119.83003322569223L194.7598912741608,135.0424822901249L195.88273254728225,75.71995280755237L195.9106639222355,-28.178542527611526L196.5530855461607,87.08574437242746L197.59213269442236,114.62273556918191L198.92725241718867,129.95421906358914L202.45219193629134,120.07177132464321L203.2957194598801,114.02249123598308L205.76485300574913,9.383996729164306L205.94361380545007,85.8224469678202L206.0385804802912,50.27356449154728L206.17265108006688,94.46091476631608L206.39610207969307,69.66160754018159L207.36252765307617,131.7641251606905L212.95438891872084,137.613323804951L212.99907911864608,53.11118126557287L213.0437693185713,-41.031886751388555L214.54089101606655,118.97218673079875L214.96544791535626,112.45076191762493L216.51843236275806,88.74575126442038L216.551950012702,152.51755679322116L216.71953826242162,97.07298126051688L218.47362860948698,135.10367224642187L219.03225610855236,54.20094524914744L219.6467463575243,92.55010459666153L219.97075030698224,45.17591232991831L220.66344840582332,111.06227871177522L220.91483078040275,124.0265634559637L221.3114563047392,90.86797435186284L222.5627819026457,89.49006718784224L223.44541335116904,144.15676405213637L226.67986657075767,24.199304631034664L226.90331757038385,76.4936226429897L227.05973327012217,87.48051132151794L228.1490568932997,53.96309222678673L228.85851381711274,155.9976141489678L229.2383805164772,169.09280439049004L229.3277609163277,56.75710980796579L229.75790409060804,74.42945986681315L230.52881003931827,88.51480504488683L230.77460613890705,30.992145211557425L232.81359651049578,178.48217115885248L234.97548493187887,154.06360143856574L235.5285261559536,111.88677829926874L238.54511465090678,134.81239942094476L240.60645012245809,142.55848671041133L240.80196974713098,24.510326595845687L242.47785224432718,115.36392184757273L242.48343851931784,65.58162960761861L243.00296209344864,93.57727567961489L243.50014056761685,141.94367333999892L247.90771153524287,88.61721998055847L248.41606255939237,188.81539570106546L248.438407659355,133.872750480067L249.80704503206522,242.30361933297357L250.03049603169137,117.89720762202606L250.42153528103717,127.01936745601229L251.03602553000908,70.72288096209411L251.33209810451373,182.3863493757051L251.6784471539343,97.17895751639628L252.0080373783829,217.0481393638632L252.77335705210248,154.1850100820121L253.86268067528002,147.91859737947277L255.0078670483641,136.96904860372896L255.37656119774724,175.81625318635858L256.5720240457472,156.3195359119905L258.4378398926256,112.91697110845901L258.66129089225177,159.61936888146568L259.0746752415602,144.75862716724782L260.5773832140461,151.40081311110293L260.83993813860684,172.33943339443718L261.5270499624573,225.70959386551831L262.6331324106068,144.03190200727641L262.7169265354666,113.49131493105595L263.13589715976565,85.84640494012694L264.27549725785906,134.46943349305803L266.9792543533356,179.0073040113058L267.2082916279524,152.52144186981147L267.5490544023823,143.38169127237478L268.1747172013355,86.72097884811748L268.39258192597106,60.33602077917634L268.71099960043836,12.572349584257172L272.5767018939709,38.50469623043025L273.5710588423073,117.23890297756134L273.63809414219514,143.2256406959984L275.45921978914834,206.9186655050518L276.4647492874661,157.27807064184887L276.8837199117651,72.47612969225379L277.1909650362511,190.03530975041457L277.2803454361016,157.55499026770073L277.50938271071834,96.83415696900859L278.10711413471836,118.1782281620566L278.3696690592791,100.17338029835747L278.4646357341202,147.4883251470989L278.60987888387723,162.6233964361084L279.6209946571856,216.17216251154844L279.6880299570734,211.12803807183L279.7606515319519,194.63167911310276L280.9896320298958,147.25187506906244L283.24090085112937,157.60269037472588L284.4475362491106,48.87558443181019L284.67098724873676,146.4624490896756L284.715677448662,97.21370736812047L284.9335421732975,200.7926551537335L286.2630756210732,83.09836076526626L287.0004639198395,112.49123146544042L287.1903972695217,118.88639128942997L288.5869660171852,181.0139460701874L289.9388445649235,257.5412134764489L290.0282249647739,143.89711143335242L290.2237445894469,214.59223136483303L290.3522289142319,161.168974847018L290.56450736387677,133.6958715764149L293.3185409342692,127.97617548516384L295.01676853142794,153.36989942961173L295.0893901063065,230.75933008253375L297.63114522705405,248.86270780531424L298.3517747008484,250.70855086087576L299.98855327311,205.93520153373913L300.55835332215673,111.41484941234346L300.8991160965866,234.27100764497354L304.250881090979,132.9047188963213L306.97139701142754,117.7838928881428L307.06077741127797,156.4192528778078L308.02720298466113,220.86922010920148L308.4573461589415,154.35390299489526L309.3511501574461,285.67229763513427L309.9097776565115,160.0813692393269L310.3231620058199,177.8849485518905L311.17786207938997,94.30389292079212L312.3453935524367,126.45149876106579L312.54091317710953,231.1994229251776L315.6301232469412,200.2843576331714L316.70827432013743,126.53578333931613L317.79201166832434,73.34919273712592L317.80877049329627,170.0433531295795L317.87580579318416,140.06739718448023L318.39532936731496,167.40106937300985L318.78078234167003,160.63801437967925L318.85899019153925,231.26924638500853L319.0656823661934,133.61579583113738L319.43437651557656,102.2220027681729L322.18282381097833,139.45927477930667L322.6017944352774,124.7283593744808L323.65201413352037,219.49821974800798L326.160251604324,143.42885178542906L326.1658378793146,107.21756375051277L326.2831496541184,145.59316320259964L326.72446537838005,140.3871605716194L328.500900825408,87.99873737114416L328.69083417509023,166.47544987537472L328.91987144970705,100.31086884213585L329.0204243995388,58.139657480135924L329.7298813233519,167.7846127675062L332.87495414309006,141.0270111022803L333.56765224193117,146.18919870282568L335.7909896882114,230.62507910258063L336.49486033703386,163.18241578993258L336.56748191191235,220.9365614367664L337.03114273613664,268.6935416664467L337.5003898353516,224.20347917401827L338.1930879341927,223.95148878962075L338.623231108473,177.35290889661L339.6064155068281,172.07265813523767L340.43877048043555,183.28811881982764L341.17057250421124,208.38409481114795L342.8520412763981,141.25752564663713L343.4050825004729,201.27731845837144L343.7570178248841,170.09040572383958L343.78494919983734,205.42172391105663L343.9246060746037,89.28545315408726L345.0753787226784,230.58784711859042L346.1702886208466,144.91683611950774L346.4160847204354,185.6024373609008L347.0808514443232,215.19301529200277L348.924322191239,168.530763310429L349.33770654054734,101.933319993756L351.1253145375567,202.95923286558178L351.66159693665946,193.51018700404083L352.7062303599118,155.6920960426597L353.2257539340426,180.40118315686428L353.58886180843507,171.48234233110293L355.3485384304911,87.57677488592165L356.2758600789396,220.21911729309394L358.94609952447223,228.1999279598902L359.1025152242106,140.196468062313L359.47120937359375,255.64524214099336L359.5494172234629,121.93088839188816L360.1080447225283,120.3139410987709L360.22535649733203,210.92493490119352L360.43763494697686,222.22543559559298L361.49344092021045,175.29327870978875L361.566062495089,185.7233064103763L361.5995801450329,207.09101181934855L361.77275466974316,170.2268150796762L362.9738037927338,149.6985020517936L365.2585902639113,152.75540981558186L365.49321381351876,202.55658784451654L370.22478873060265,212.25017769365698L371.4425966785652,183.27765069679268L372.1017771274624,153.02736517690172L373.66593412484553,192.52909724620002L374.3753910486586,222.1081278663253L374.63235969822864,176.6693512543084L374.6547047981913,179.22378911241998L374.7440851980418,127.85142135909807L374.90608717277075,161.19379616967817L375.1686420973315,210.7665101113453L375.2747813221539,197.339253740148L375.9786519709763,198.01633625479909L376.224448070565,148.31228514062153L377.3305305187145,266.2197191475836L377.7718462429762,161.63173063643848L378.62096004155563,151.4612476358407L379.8611130894808,262.46128526226363L380.92250533770505,240.46446724265093L381.246509287163,196.1100586744999L382.0174152358732,211.20120701428036L382.71569960970504,148.5568291282211L383.41398398353675,115.61602015076446L383.75474675796664,183.88588102076042L383.8720585327703,252.4845704566063L384.57592918159276,263.79122252227376L386.37470972858335,205.11458702283585L386.9500960526207,171.540510561163L387.2070647021908,203.81287052750244L388.1511451756113,268.0691235233528L389.31309037366736,220.40495345666258L389.65385314809726,246.15955784883013L390.2795159470505,173.2141152212219L391.095112095686,198.0609067167932L392.4972671183401,204.94925543016043L393.8603182160597,198.50326585411466L394.6088790648073,170.2738676739363L394.93288301426526,122.66635497418768L401.07778550398467,216.3478543084646L401.8207600777417,219.18762945837364L401.8542777276856,168.64656017657828L402.04979735235844,182.05795248503193L402.284420901966,253.51443950941402L403.49105629994716,194.0839912326669L403.68098964962945,148.95321485922418L404.17816812379766,172.57739433559203L404.24520342368544,193.13279498081243L404.4407230483584,142.90630898403592L405.2228015470499,153.6296599671899L405.93225847086296,279.46189478677155L407.6137272430499,200.4019891188217L408.2561488669751,191.246158621053L409.2169881653675,177.58935897464644L411.2783236369189,208.25869317231712L413.61338658301224,250.96572134739367L415.94286325411497,219.6962507353183L416.6914241028626,151.56743972930846L417.66343595123635,147.8486660008477L419.41194002331105,214.5894254761845L419.79739299766624,299.12664162366934L421.0207872206194,228.64887014365632L421.75817551938576,150.19255429152471L422.24418144357264,248.62852402195549L422.4843912681708,272.0937391145043L422.98156974233893,253.97935367471794L423.8306835409184,185.57934273894745L424.45634633987163,214.92311038777217L424.61834831460055,151.57974247184433L426.1825053119837,223.15666687052519L427.243897560208,257.6533411035963L429.76330758099294,173.41171453335548L429.9141370057406,219.5291924419361L430.51186842974056,248.92163146693355L432.4447195765068,233.7514865698173L432.6625843011424,231.20632972800476L434.56750407295533,188.82607966168877L435.1596492219647,259.7005606290875L435.41661787153475,283.6306359275431L435.606551221217,249.12851179536617L436.6791160194225,243.1426879576807L437.947200442301,222.2220901129736L437.9918906422263,185.26605447945875L438.2265141918337,256.21057474427676L439.1650083902636,224.36794741634031L439.3884593898897,241.8434535946133L440.00853591385237,195.3798801131149L440.5615771379271,224.84235843553165L441.63414193613266,281.9108959829745L444.0250676321325,204.1017691395077L444.40493433149703,225.39436306773445L446.90758552731,243.55439815745655L448.46615624970246,219.94435604312557L449.3096837732912,228.44565905422562L452.2536506933659,213.98486439121868L454.6445763893658,156.22025062134995L454.7116116892537,157.91306482677192L456.63329028603863,192.47470617393603L457.53826683452456,241.34994094885306L457.9013747089171,192.86688307196638L458.0186864837208,192.03374998093884L458.3650355331414,273.38887256339297L459.9962278304123,215.85703963255872L460.2308513800198,219.315836985853L462.65529472596364,204.7908306403122L463.4820634245804,225.9552170410596L466.8338284189728,217.40912773037707L467.1354872684681,139.51722717177836L467.4985951428606,243.96610835723249L468.7164030908232,288.13457284302075L469.7554502390849,244.36875337829773L472.03465043527166,212.9322244728401L474.24122905658004,216.7077634870367L474.4311624062623,164.83389709718566L476.64891357755187,133.902428148465L477.162850876692,307.45948339706297L477.3192665764304,235.00323666344786L477.95051565037426,171.70854012369276L478.6543862991967,310.45029089941926L478.8666647488415,286.52280565202386L479.5314314727293,178.3738206895012L479.62639814757046,296.97851802562496L480.0453687718695,227.04627605016427L480.1738530966545,215.79962683405788L480.3470276213648,86.63863680816232L481.59276694428064,148.1997258382975L481.7044924440937,269.66497269220895L481.7827002939629,128.05398493576368L482.05084149351427,133.6647909636926L483.26306316648623,312.7347698939032L484.0619004901497,231.60714012956902L484.12893579003753,254.28120254202412L484.218316189888,281.8284460242252L484.56466523930857,272.1557384617575L487.3298713596823,250.57775328233618L487.5756674592711,210.86212616298397L488.86051070712153,258.7344176242398L488.9275460070093,230.48521634533043L490.66487752910274,234.36187526966853L491.02239912850456,260.3863306066696L491.5586815276074,153.57990940307545L492.64241887579425,228.8927666184908L494.0389876234578,217.6660823793067L494.13954057328954,208.39898760474404L494.8713425970652,226.7959044476793L495.05010339676613,196.75325468778018L496.20646231983153,234.7568580563474L497.54716831758844,287.76020254602923L498.48566251601835,190.92563980235454L499.05546256506506,213.4487238217595L499.56381358921453,233.59111924167394L499.7481606639061,132.97141271112116L500.1336136382613,240.403924799119L500.75369016222385,188.19184090832493L500.94920978689674,244.7885574876367L501.77039221052286,306.0168789159346L503.85407278203684,298.4102766679387L504.658496380691,171.08153192953864L504.7758081554947,186.7065545441006L506.04947885336384,236.33506250235598L506.0774102283171,250.31961152667066L506.3232063279059,166.34907696739631L507.6527397756815,240.96844801144604L508.07729667497125,254.28713807570375L508.11640059990583,204.5810365044369L508.8035124237563,275.63034591839835L509.23924187302725,288.6562522940605L509.501796797588,318.8279729317924L509.7811105471207,242.1590081487797L510.33973804618614,320.0070936769435L512.2278989930271,232.59017242570496L513.0043912167281,209.7725780169977L513.5071559658869,251.51610719768385L515.5517326124663,252.22804748285338L517.0097503850269,222.37490312552478L517.2052700096998,232.719998735097L520.2162722296623,233.25376509108426L520.6631742289146,268.9194696620512L520.8754526785596,274.4006112587794L522.0541567015875,185.1869500033288L522.6798195005407,214.05112653084186L523.3557587744099,252.56777584691486L524.2048725729893,191.84133077092565L524.6350157472697,258.06456566879837L524.6741196722043,208.5089568560079L524.791431447008,244.95086735407526L525.3109550211387,239.70169720542518L525.9477903700733,194.43904406550118L526.1824139196808,174.55597750798822L528.4280964659238,171.24017255697524L529.3330730144096,226.0105793824711L530.7240554870825,259.5214693901548L531.3106143611011,255.68349935352825L531.5117202607647,244.7449582947902L531.7239987104095,126.68633005718965L531.8413104852133,155.48035936848925L532.7574595836805,253.75488258283488L533.1652576579984,220.0516273245351L533.4725027824843,256.0002410144305L533.8523694818488,187.0535134673718L534.1149244064095,206.10938246753682L534.5227224807272,226.241741439593L536.3103304777364,247.19385157219904L537.5057933257365,277.0786700956179L539.0029150232317,225.15791298969802L539.2487111228205,280.88318530605034L539.5615425222971,213.75283898374337L540.7123151703719,174.217652088251L541.935709393325,219.27677038236183L542.0474348931382,231.02405488464396L542.6786839670821,270.02310121067717L544.9858155382221,219.4070283669305L545.2707155627455,186.61363646231635L546.3712117359044,255.9106684152657L547.1756353345586,297.66034896721976L547.9521275582595,185.59412761374935L548.2593726827454,137.49806653277258L548.4939962323529,291.3935045895038L548.7342060569509,154.38250147535155L549.4045590558294,245.72248673242328L549.4213178808014,240.07207450703223L549.8179434051378,238.4402344203189L549.8849787050257,254.0804196254624L550.3430532542593,265.50168145054323L550.750851328577,304.1349370237218L551.0189925281285,205.9020704639275L553.3764005741845,212.82603237937238L553.8679927733621,234.51490411980805L553.8735790483527,238.52700113083526L554.0355810230816,232.57884095231665L554.3260673225956,282.89338868513966L556.1360204195676,284.89916739366777L557.873351941661,260.08119021614107L561.2698071359785,336.9465672045515L561.3815326357917,369.7570102786452L565.9734506781092,318.2782885536643L566.2695232526138,217.27325796851133L566.654976226969,197.42407791236914L567.6493331753055,273.29498321246115L568.2414783243147,252.8359540504386L572.4926335922024,313.9739474480125L572.9116042165015,214.7483898600036L573.9785827397163,234.9090235561335L576.2242652859593,321.77809504874494L576.3304045107817,224.35499716103934L576.3695084357163,234.64591753593595L577.1962771343331,235.80431787260554L579.8274126549311,247.28191330824544L580.4363166289123,316.83482072218266L580.6765264535104,238.9298619894888L580.911150003118,143.67846795635478L581.1904637526507,215.80782866241515L582.542342300389,313.1061184646578L583.542285523716,227.3644206553908L585.5645170703327,189.80220515499752L585.6203798202392,266.52717979218687L585.7656229699963,246.36600650208607L587.2683309424822,272.83066260052516L588.9051095147439,269.55516531913634L589.9385703880148,183.24290084506848L590.9385136113418,202.71490471557058L593.3853020572483,306.53019466042593L594.390831555566,164.5535240699202L594.4969707803886,232.9843997808246L595.8209179531735,260.1642337282584L596.1449219026315,311.0116844667153L596.9884494262202,216.60092388080386L597.1392788509678,305.5675050569919L597.3906612255473,266.80701322548146L599.524618271977,285.8569466919669L600.9435321196032,201.38480557736926L601.5747811935471,298.23123938840314L602.1669263425564,146.30089465479634L602.8093479664817,269.4573908916142L603.8595676647245,258.4646745982005L604.5690245885377,268.6761667405847L606.4292541604253,215.91855334523825L607.9654797828553,337.9860410300407L611.3954526271168,313.88960891036504L613.1104390492476,225.37040509542769L614.736045071528,257.77075675165815L615.2779137456214,213.03474732730592L615.4510882703316,231.61739241501562L615.5460549451727,202.0928607859485L617.7135296415464,262.3625395655939L617.752633566481,262.49215003739755L618.9927866144062,241.6861079927068L619.0821670142567,254.6350682681225L619.5178964635277,238.80467618824636L619.7972102130603,245.00763263981102L620.0374200376585,193.76724957176464L620.5234259618454,334.91785575226123L622.4227594586679,244.43566303068593L624.1936086307051,232.44167616492078L624.824857704649,272.8179281828125L625.6236950283126,283.7846900062272L626.7074323764994,253.42875198683942L627.0761265258826,261.830877626093L627.0817128008733,190.95413036401666L627.1096441758265,227.25294054100854L627.148748100761,170.28552290370718L629.8580914712282,280.90142358226586L630.2603032705554,274.4318537496929L631.9920485176581,268.83340442369695L633.2322015655833,179.21871692909377L635.2432605622188,221.15380196943974L635.4890566618076,320.6908671568334L635.5337468617327,343.2511292008315L636.8632803095084,266.56576076110423L636.9079705094337,213.14784622360088L637.7570843080131,242.47197265188586L639.466484455153,276.44658971813755L641.7121670013961,269.72389635382825L642.8908710244241,236.6669127944427L643.745571097994,330.14584855205396L646.264981118779,225.83100250896464L646.767745867938,244.58027421487984L648.8346676144799,244.90025343960738L652.9405797326106,225.02538871045167L653.6723817563862,296.52531304948894L658.1022978239748,246.18804841049226L658.6274076730963,301.4744149909367L660.9959882691336,303.83837617733013L662.1914511171335,349.6200107984396L662.7835962661429,255.1649495475195L665.0516239123484,256.35599531942694L665.1465905871895,281.44754664018615L665.3365239368718,291.41929718131144L665.4594219866661,251.05497019017605L665.6214239613951,366.6406932186639L666.6716436596381,358.1608120882075L667.1129593838997,237.06545690132933L671.693704876236,216.86661995206165L672.3584716001238,297.6993616113139L672.760683399451,220.31646004543944L674.0287678223293,193.22463387465498L674.7996737710396,186.23948200291315L675.57057971975,309.73759518269054L676.4979013681984,302.2278500524663L676.9168719924976,248.82968465429684L677.6989504911891,337.3560111096497L678.7379976394507,222.50138395229732L679.525662413133,182.8854737987624L681.8160351593011,289.0697431539403L682.4249391332824,275.4140766548726L682.4528705082356,268.04894270884216L682.9053587824785,297.214050793911L684.3689628300299,318.2643670292158L686.0280865022542,261.45693900427824L686.8269238259177,211.342580634649L686.8492689258803,293.31737293325347L687.6090023246093,347.24380082890724L688.0726631488335,229.86252490294328L688.4301847482353,349.03838245723585L689.374265221656,262.2357349824389L689.9496515456932,315.9230148302019L691.1339418437119,370.84245751045285L692.2344380168707,250.87064488972587L693.5751440146278,350.1697491359647L693.9550107139922,240.80603022621332L694.3181185883847,302.9329374942057L694.5583284129829,297.5082913862278L694.5974323379174,292.33822571370774L694.636536262852,311.4798901552416L695.005230412235,232.00298626660128L695.2789578867772,252.65152083119432L697.591675732908,253.70254196766024L698.1000267570574,281.2951113434146L698.7145170060294,235.64243968134375L699.0887974304032,291.4976462258822L699.9490837789639,375.35939864062857L701.2115819268516,351.5472246248086L701.6137937261788,323.0065886422309L701.7087604010198,249.90606670739382L702.3176643750012,292.8800859792582L702.5131839996741,194.233027087422L702.742221274291,299.41241059064356L704.2840331717114,281.588434625981L705.0437665704403,271.24717013360197L705.6135666194871,320.32523828217006L705.775568594216,251.0545385149993L705.8984666440105,302.8616031712563L706.5576470929076,334.7525781189829L708.9038825889822,268.1127227161993L709.2725767383655,338.7945686359964L709.8256179624401,251.25613082251738L709.8870669873373,264.66568851147L709.9876199371691,281.35538398996107L710.1049317119729,209.44223858802943L711.088116110328,304.90170005633195L711.8422632340663,314.00929085310463L711.8813671590009,243.836605804223L712.9483456822157,322.8628408083904L713.6298712310755,312.8269325441283L713.8253908557484,240.7028598589825L714.1493948052064,295.8641485569786L714.3058105049447,164.39121420348167L714.7750576041595,272.3791843250959L715.4230655030755,311.32642962992537L716.5514930511875,296.4624503518823L721.4115522930566,259.24444184550873L721.7690738924584,309.7787122432711L723.4170250147014,253.16025002693308L723.6628211142902,261.9231481951123L725.7353291358227,282.2571534340836L726.3609919347759,278.5876446351635L726.4838899845704,336.0435027348989L726.9866547337292,250.78074853417849L728.4726038812432,350.4606982050593L729.0088862803459,232.6554632961806L731.6400218009439,316.7090953269693L731.8746453505514,231.32590375195014L733.0086591736542,242.82303248933565L733.2823866481963,352.4811538695952L733.5505278477476,301.00297173858513L733.7181160974674,319.94860169050094L735.1984789699906,262.7673969219398L737.1816065916728,230.14645925041648L738.9524557637101,242.2211693742242L739.080940088495,294.530164342187L739.2205969632614,343.2133036634733L739.7512930873736,282.8377025873456L739.89094996214,301.3498767024592L740.3601970613549,293.7704160311982L740.4439911862146,246.00480229798387L741.036136335224,344.8964051774196L741.0417226102147,294.4933640333735L742.6896737324577,350.68916229232684L745.5163288777285,344.6138737742706L749.4155488212049,265.70732071284283L749.7004488457283,350.86787581547986L750.5886665692424,189.85961795349837L750.6445293191489,252.80994562104254L751.7897156922329,241.63711286015157L752.7840726405694,302.1904561902848L752.8566942154479,298.65395730518486L753.1583530649432,250.26781050546688L753.2477334647937,311.3970624807126L755.7559709355974,307.1014627973889L756.147010184943,296.0225193874297L756.1693552849057,297.1781677948479L756.5324631592982,305.79769584496614L756.5603945342515,320.6716036520733L757.6888220823636,252.0238651242751L757.8452377821019,270.1431608691964L758.6217300058028,272.9218539816026L760.6160301774663,326.0033316782668L760.6216164524569,217.50366459407402L761.1523125765691,332.3854333281613L762.0014263751485,258.6295205563021L762.5432950492418,266.2414647846098L763.0516460733913,300.4158395388785L763.073991173354,253.4032831514142L766.1967188931295,275.46566183848796L766.7441738422136,305.699921417444L769.5875878124566,429.30444252827755L773.1348724315219,247.03995937170615L774.118056829877,332.9975487287193L774.5482000041573,404.0040143813935L776.6318805756713,243.98823171003826L776.9726433501012,371.0418374826903L777.6262375240077,286.6008848996091L777.9390689234842,319.4809355959455L779.3300513961572,321.3007162627138L780.0339220449795,242.6474486112137L781.3746280427365,335.0242636833173L782.0058771166804,309.07362480153165L783.6314831389607,368.07703840973005L784.0057635633345,334.63580998368604L784.9386714867737,369.5710122368854L787.2625618828858,225.5667093820312L787.4915991575027,282.8585309146212L787.631256032269,235.68150628483494L788.3854031560072,275.14816474602645L790.8545367018763,300.71428896416825L791.3684740010165,187.71527151325012L793.1337368980631,318.6146174757093L795.8374939935397,277.5013340530025L796.5525371923434,287.1577998369469L796.6251587672218,265.47362256405785L796.8597823168294,314.5700369076356L798.3066275394087,271.4014400498745L800.4126532108853,273.46446967871225L801.3734925092778,290.38144213773484L804.2783555044178,371.6896200447231L805.244781077801,306.145679996782L805.4291281524926,310.4075550569262L807.7753636485672,292.72613981936814L809.3227618209784,284.8310706345436L810.4791207440437,273.35401479287464L810.6243638938008,313.38897362418936L810.6411227187727,343.16754609474333L811.8198267418007,369.2791998174374L812.6019052404922,447.68592698364586L813.6856425886791,280.15322258225365L814.4397897124175,305.42084341570865L815.7469780602305,298.7571276724157L816.3726408591838,296.7019221561556L819.5959215287911,361.55939075435236L819.7411646785481,390.39324210070237L820.3947588524546,303.7434076384565L821.1600785261742,315.19299814700815L823.6236257970526,315.9848522992639L824.5956376454265,368.49349703644964L825.3386122191835,268.8436027497465L826.3553142674824,329.7671075438984L829.282522362585,367.1544945977289L829.4445243373141,289.2751665786516L830.4779852105851,250.15557495952535L830.7461264101364,343.1263211153686L831.1986146843794,218.94610719701103L831.9192441581738,216.20205601753477L832.4331814573139,374.08282722433785L833.9470619797812,266.1815158944458L834.0587874795942,274.80098998516695L834.0811325795569,293.54357072584327L834.1984443543607,366.5268928502069L835.2654228775755,348.28645825882467L836.0083974513325,324.9767541486815L837.3155857991455,247.48059180832084L839.6283036452763,321.66127295405096L841.343290067407,293.41860076218916L841.5443959670707,213.60240018466408L841.6840528418369,282.8279359364728L843.538696138734,286.8999818376639L844.5218805370891,296.36931643250966L844.6950550617994,250.38706077302976L846.6334924835564,372.127932227263L847.5105376570891,355.8503246643275L848.689241680117,305.9638368285979L849.1361436793694,270.7965552085261L849.7115300034068,312.01020310981534L850.0131888529021,320.97652820501344L852.7616361483039,296.13788457840235L853.1861930475935,317.81186352524196L853.6107499468832,289.20733961651285L854.4207598205281,323.5604818533318L854.5380715953318,231.2815491275444L854.7447637699861,325.7574387057401L855.7000167933878,371.71627598688417L858.2026679892009,361.239519448419L859.5266151619859,278.4598148234638L864.7330234532753,320.5370289157376L865.5933098018361,387.10684502110195L865.7497255015743,298.8504774293767L865.900554926322,297.0577304205491L866.0849020010137,260.1872204314176L866.4424236004155,389.01037067214975L866.7440824499108,371.8289432080024L866.8167040247893,289.59951651454315L868.0121668727893,287.8295403712864L868.6825198716676,307.75453338033617L869.12942187092,278.90212000138814L874.4866595869572,328.22014558880335L875.7268126348823,321.3375165715274L876.9334480328637,274.65254768377986L877.4082814070694,320.20749887772564L878.9947835044151,342.9103216488283L879.5422384534991,334.1989547048675L880.123211052527,292.60624203904024L880.4360424520038,319.53683753132793L882.1230974991813,317.5495129366036L882.4806190985831,286.393033302029L883.0504191476299,325.26122809012554L883.3520779971252,342.9010945919264L883.4638034969382,285.3526421667892L883.7989799963774,372.4273529217003L885.0503055942839,227.05469371610988L887.4579901152558,275.7570965421564L888.6311078632932,245.68449931687383L888.681384338209,245.4648845707286L889.9382962111061,329.9873158434116L892.8543317562276,307.45629979263475L894.4687652285265,366.6406932186639L894.6586985782087,322.79021145991095L895.1335319524144,295.3069638226554L895.7145045514425,277.3535932237775L895.770367301349,315.23125535954307L895.9379555510685,264.80533543113194L896.4574791251994,336.2654916945159L897.40155959862,326.7959952214789L898.6026087216105,377.5369840694826L899.144477395704,345.43675457985154L901.0940873674423,375.2940538107559L901.1443638423581,366.8220507522742L901.1555363923394,278.7497386640137L901.7700266413113,344.2843437362586L902.0716854908067,304.8319845152952L902.2616188404888,391.59103279724565L902.9878345892739,282.2940077022942L903.116318914059,257.776206650764L903.5129444383954,335.8762286039283L907.5294761566756,319.31414709954873L907.7864448062456,373.76856769570156L908.1160350306943,294.7816690920108L908.4735566300961,288.3780376426785L908.5350056549934,270.47112608469286L909.3729469035914,366.3787743052023L911.0767607757408,327.15612023763936L911.1493823506195,372.102625270029L912.4062942235165,308.0940459068093L913.1939589971988,368.2804653367491L915.529021943292,307.69981855168965L917.484218190021,322.09737280131037L917.5289083899463,263.30936510628436L919.0483751874041,391.66948976061065L919.2885850120023,292.6664067667926L920.3723223601891,369.51516426090006L920.3779086351798,322.90266284344085L920.4002537351424,325.90037714862433L920.5566694348807,285.64661296212074L926.0591503006749,308.9423955478154L926.1932209004506,367.5432720537427L926.6512954496842,333.9268914247535L927.3216484485627,244.8448910981958L928.2936602969364,305.34362751847675L928.8411152460205,276.86709529963866L929.8354721943571,355.7725152137277L930.0142329940579,372.93262871602553L931.1538330921513,338.35803711356044L931.2655585919643,304.08054595145785L931.9806017907681,293.62213560800234L932.2208116153663,372.5345162843156L934.3156647368614,270.89249501654734L937.6506709062819,274.0477168018286L942.7732850727116,220.45783366580807L942.9743909723752,340.4184227319409L944.1028185204873,359.9332703637303L944.7117224944685,345.03642981286106L944.912828394132,374.86826020834025L949.242191511889,313.54232623071135L949.2477777868795,374.2790235921472L950.2924112101318,383.9752034923478L950.404136709945,339.6879204141734L954.7670174776458,307.8091942495856L954.9960547522626,373.23091626312396L955.1748155519634,294.8147462024253L955.666407751141,264.4945293039092L955.683166576113,378.3191794896598L956.7724901992906,300.1681659062479L957.0909078737578,302.48275424430653L957.9902981472532,296.0917492938927L958.0070569722251,317.6470715265374L958.3869236715896,398.5250311605488L959.8337688941689,327.8525202164477L960.3030159933838,351.23679621336555L960.4650179681129,344.0720674681173L961.0404042921501,314.0217015144347L961.4426160914772,290.90819377210084L961.8224827908417,342.5401062254125L961.9118631906921,281.8411804419378L962.4034553898698,274.3561487155795L962.5710436395894,360.4697886489691L965.079281110393,303.2760653002837L965.1072124853463,253.09733336992934L965.4479752597762,292.97143923852695L966.07922433372,285.3588474974543L966.7942675325238,284.687214881909L967.3864126815331,308.4067406129301L967.8835911557013,314.0611997931026L968.4924951296827,315.73118917355663L969.7214756276264,352.5967348981561L970.8834208256826,232.28249594351337L971.4476345997385,251.02108368880522L972.4308189980936,341.2198276974811L973.1793798468412,352.82487522904114L973.3581406465422,342.18354252945977L974.9446427438879,265.12946952943514L976.0004487171216,287.7222151304798L976.525558566243,333.63637403083555L976.7825272158132,344.0543148264756L977.0227370404112,295.7100405188973L977.0953586152898,308.20466267083816L977.3243958899066,288.3824083538426L978.3243391132337,301.9670642863435L979.2963509616073,330.363520759904L980.5756079344673,303.8883965384301L982.6816336059438,329.9154419264913L983.0391552053457,211.29984479215594L983.1061905052335,260.463222747519L983.8100611540559,343.1263211153686L984.6312435776821,222.49868598244296" fill="none"></path></g></g></g></g></g></g><g transform="translate(61, 376)" clip-path="url(#clip_1)"><clipPath id="clip_1"><rect width="1117" height="23"></rect></clipPath><g><g><line x1="0" y1="0" x2="0" y2="5" style="visibility: inherit;" fill="rgb(0, 0, 0)" stroke="rgb(204, 204, 204)" stroke-width="1px"></line><line x1="111.72549981307985" y1="0" x2="111.72549981307985" y2="5" style="visibility: inherit;" fill="rgb(0, 0, 0)" stroke="rgb(204, 204, 204)" stroke-width="1px"></line><line x1="223.4509996261597" y1="0" x2="223.4509996261597" y2="5" style="visibility: inherit;" fill="rgb(0, 0, 0)" stroke="rgb(204, 204, 204)" stroke-width="1px"></line><line x1="335.17649943923954" y1="0" x2="335.17649943923954" y2="5" style="visibility: inherit;" fill="rgb(0, 0, 0)" stroke="rgb(204, 204, 204)" stroke-width="1px"></line><line x1="446.9019992523194" y1="0" x2="446.9019992523194" y2="5" style="visibility: inherit;" fill="rgb(0, 0, 0)" stroke="rgb(204, 204, 204)" stroke-width="1px"></line><line x1="558.6274990653992" y1="0" x2="558.6274990653992" y2="5" style="visibility: inherit;" fill="rgb(0, 0, 0)" stroke="rgb(204, 204, 204)" stroke-width="1px"></line><line x1="670.3529988784791" y1="0" x2="670.3529988784791" y2="5" style="visibility: inherit;" fill="rgb(0, 0, 0)" stroke="rgb(204, 204, 204)" stroke-width="1px"></line><line x1="782.0784986915588" y1="0" x2="782.0784986915588" y2="5" style="visibility: inherit;" fill="rgb(0, 0, 0)" stroke="rgb(204, 204, 204)" stroke-width="1px"></line><line x1="893.8039985046388" y1="0" x2="893.8039985046388" y2="5" style="visibility: inherit;" fill="rgb(0, 0, 0)" stroke="rgb(204, 204, 204)" stroke-width="1px"></line><line x1="1005.5294983177185" y1="0" x2="1005.5294983177185" y2="5" style="visibility: inherit;" fill="rgb(0, 0, 0)" stroke="rgb(204, 204, 204)" stroke-width="1px"></line><line x1="1117.2549981307984" y1="0" x2="1117.2549981307984" y2="5" style="visibility: inherit;" fill="rgb(0, 0, 0)" stroke="rgb(204, 204, 204)" stroke-width="1px"></line></g><g transform="translate(0, 8)"><text style="text-anchor: middle; visibility: hidden; font-family: Roboto, sans-serif; font-size: 12px; font-weight: 200;" x="0" y="0" dx="0em" dy="0.95em" fill="rgb(255, 255, 255)" stroke="none" stroke-width="1px">-20k</text><text style="text-anchor: middle; visibility: inherit; font-family: Roboto, sans-serif; font-size: 12px; font-weight: 200;" x="111.72549981307985" y="0" dx="0em" dy="0.95em" fill="rgb(255, 255, 255)" stroke="none" stroke-width="1px">0</text><text style="text-anchor: middle; visibility: inherit; font-family: Roboto, sans-serif; font-size: 12px; font-weight: 200;" x="223.4509996261597" y="0" dx="0em" dy="0.95em" fill="rgb(255, 255, 255)" stroke="none" stroke-width="1px">20k</text><text style="text-anchor: middle; visibility: inherit; font-family: Roboto, sans-serif; font-size: 12px; font-weight: 200;" x="335.17649943923954" y="0" dx="0em" dy="0.95em" fill="rgb(255, 255, 255)" stroke="none" stroke-width="1px">40k</text><text style="text-anchor: middle; visibility: inherit; font-family: Roboto, sans-serif; font-size: 12px; font-weight: 200;" x="446.9019992523194" y="0" dx="0em" dy="0.95em" fill="rgb(255, 255, 255)" stroke="none" stroke-width="1px">60k</text><text style="text-anchor: middle; visibility: inherit; font-family: Roboto, sans-serif; font-size: 12px; font-weight: 200;" x="558.6274990653992" y="0" dx="0em" dy="0.95em" fill="rgb(255, 255, 255)" stroke="none" stroke-width="1px">80k</text><text style="text-anchor: middle; visibility: inherit; font-family: Roboto, sans-serif; font-size: 12px; font-weight: 200;" x="670.3529988784791" y="0" dx="0em" dy="0.95em" fill="rgb(255, 255, 255)" stroke="none" stroke-width="1px">100k</text><text style="text-anchor: middle; visibility: inherit; font-family: Roboto, sans-serif; font-size: 12px; font-weight: 200;" x="782.0784986915588" y="0" dx="0em" dy="0.95em" fill="rgb(255, 255, 255)" stroke="none" stroke-width="1px">120k</text><text style="text-anchor: middle; visibility: inherit; font-family: Roboto, sans-serif; font-size: 12px; font-weight: 200;" x="893.8039985046388" y="0" dx="0em" dy="0.95em" fill="rgb(255, 255, 255)" stroke="none" stroke-width="1px">140k</text><text style="text-anchor: middle; visibility: inherit; font-family: Roboto, sans-serif; font-size: 12px; font-weight: 200;" x="1005.5294983177185" y="0" dx="0em" dy="0.95em" fill="rgb(255, 255, 255)" stroke="none" stroke-width="1px">160k</text><text style="text-anchor: middle; visibility: hidden; font-family: Roboto, sans-serif; font-size: 12px; font-weight: 200;" x="1117.2549981307984" y="0" dx="0em" dy="0.95em" fill="rgb(255, 255, 255)" stroke="none" stroke-width="1px">180k</text></g><line x1="0" y1="0" x2="1117.2549981307984" y2="0" fill="rgb(0, 0, 0)" stroke="rgb(204, 204, 204)" stroke-width="1px"></line></g></g></g></g></svg>